<svg width="50" height="50" viewBox="0 0 50 50" fill="none" xmlns="http://www.w3.org/2000/svg">
<g clip-path="url(#clip0)">
<path d="M49.9876 49.9999V49.9978H50.0001V31.6603C50.0001 22.6895 48.0689 15.7791 37.5814 15.7791C32.5397 15.7791 29.1564 18.5457 27.7751 21.1686H27.6293V16.6166H17.6855V49.9978H28.0397V33.4686C28.0397 29.1166 28.8647 24.9082 34.2543 24.9082C39.5647 24.9082 39.6439 29.8749 39.6439 33.7478V49.9999H49.9876Z" fill="white"/>
<path d="M0.825195 16.6187H11.1919V49.9999H0.825195V16.6187Z" fill="white"/>
<path d="M6.00417 0C2.68958 0 0 2.68958 0 6.00417C0 9.31875 2.68958 12.0646 6.00417 12.0646C9.31875 12.0646 12.0083 9.31875 12.0083 6.00417C12.0062 2.68958 9.31667 0 6.00417 0V0Z" fill="white"/>
</g>
<defs>
<clipPath id="clip0">
<rect width="50" height="50" fill="white"/>
</clipPath>
</defs>
</svg>
