<svg width="299" height="142" viewBox="0 0 299 142" fill="none" xmlns="http://www.w3.org/2000/svg">
<path d="M74.4922 67.553C74.313 67.6142 74.0662 67.8158 73.9776 68.0111C73.8712 68.1973 73.6283 70.1746 73.4342 72.3958C73.026 77.058 72.9094 78.071 72.7957 78.2206C72.7054 78.3275 69.9342 79.1478 66.3629 80.1153C62.1111 81.2696 54.7157 83.7753 53.871 84.3375C53.4191 84.6308 53.296 84.9727 53.5878 85.1554C53.882 85.3504 55.5031 85.001 58.4664 84.1043C66.5579 81.6497 72.3426 80.0241 72.5559 80.1337C72.9115 80.3165 71.0409 94.3433 70.0007 99.1952C68.9684 104.007 67.6076 107.655 66.7793 107.82C66.4265 107.891 65.9881 107.293 65.5828 106.143C64.9434 104.381 64.7193 104.057 64.0925 103.954C63.5957 103.863 63.5344 103.875 63.0971 104.242C62.8527 104.456 62.2914 104.999 61.8535 105.442C60.5139 106.801 58.9642 107.986 58.3506 108.109C58.0438 108.17 57.7988 107.902 57.6891 107.353C57.5257 106.535 58.6837 104.667 59.7125 104.068C60.0845 103.854 60.3122 103.796 60.7483 103.823C61.4444 103.874 61.8649 103.663 61.912 103.261C62.0063 102.455 60.0032 102.17 58.7927 102.818C58.5902 102.922 58.1199 103.283 57.7416 103.625C57.2423 104.08 56.9268 104.257 56.5998 104.297C56.3495 104.322 55.4657 104.689 54.653 105.092C53.8275 105.511 50.6978 107.012 47.6989 108.449C44.6999 109.885 42.0214 111.169 41.7623 111.31C40.9933 111.692 40.9131 111.53 41.0719 110.09C41.5069 106.121 41.6728 101.443 41.5514 96.9252C41.4357 92.355 41.3775 91.7449 40.8735 89.143C40.4109 86.7484 40.3687 86.6173 39.8915 86.0655C38.9801 85.0169 37.905 84.8257 35.8279 85.3677C35.1627 85.5514 31.6169 86.8057 27.9347 88.176C18.5806 91.6569 17.3852 92.0608 14.948 92.6367C12.7078 93.1606 12.1493 93.3991 12.2371 93.8383C12.2688 93.9969 12.533 94.1218 13.0426 94.1976C13.7381 94.325 13.9553 94.2943 15.9525 93.8317C18.1799 93.3231 19.9258 92.7204 30.3905 88.8906C33.942 87.5845 36.8334 86.7275 37.348 86.8277C37.7607 86.8974 37.9904 87.1687 38.3347 88.0135C39.1561 89.9684 39.5546 101.461 38.9949 107.6C38.6901 111.023 38.4312 112.521 38.0829 112.934C37.866 113.205 37.0244 113.703 35.5758 114.437C25 119.786 17.6562 124.705 13.8833 128.974C11.632 131.518 10.6664 133.55 10.6982 135.625C10.7487 137.873 12.5163 139.614 15.265 140.118C18.9894 140.794 23.6132 139.426 27.6728 136.432C31.0645 133.927 34.2677 130.001 36.436 125.685C37.9358 122.733 39.4636 118.406 40.1435 115.262C40.3009 114.533 40.5373 113.801 40.6897 113.605C40.9557 113.26 42.1589 112.576 46.8386 110.131C49.4234 108.776 56.1151 105.384 56.2684 105.353C56.2991 105.347 56.2622 105.481 56.1711 105.664C55.6209 106.662 55.7266 108.468 56.3509 109.118C56.7932 109.575 57.5702 109.711 58.5342 109.506C59.4852 109.316 60.0678 108.958 62.0038 107.392L63.4462 106.228L63.8107 107.094C64.2797 108.244 64.5669 108.643 65.2233 109.134C66.4018 110.002 68.0477 109.457 69.0526 107.861C70.7643 105.171 71.7849 101.338 73.0442 92.9532C73.5286 89.7096 73.8558 87.9947 73.9328 88.2204C74.005 88.4217 74.1003 89.6969 74.1538 91.0819C74.2048 92.4548 74.3753 94.9838 74.5406 96.6891C74.7084 98.4066 74.9068 100.676 74.976 101.741C75.3138 106.305 76.7742 117.763 77.2662 119.745C77.5268 120.81 77.5317 120.834 77.9151 120.758C78.4674 120.647 78.5094 121.895 77.4067 107.358C77.2227 104.921 77.0734 102.578 77.0697 102.16C77.0635 101.73 76.8983 98.9079 76.6916 95.8786C76.1079 87.2908 75.7958 80.7805 75.9333 79.7125C76.0206 79.1114 76.2667 78.9861 78.7587 78.285C79.6797 78.0248 82.187 77.3207 84.3464 76.7115C86.5082 76.1145 90.2611 75.098 92.6732 74.4764C97.2544 73.2943 100.448 72.3516 100.641 72.1226C100.874 71.8478 100.485 71.659 99.8107 71.7176C99.4174 71.7454 98.3025 71.9936 97.3201 72.2661C96.3224 72.5416 93.6293 73.1941 91.3277 73.7302C89.0237 74.2541 86.2563 74.9341 85.1641 75.2158C81.529 76.1834 78.5493 76.9184 77.3222 77.1637L76.1104 77.4059L76.0055 76.8812C75.9495 76.6006 75.8902 74.4681 75.8888 72.1463C75.8808 69.1534 75.8162 67.8721 75.682 67.7593C75.3909 67.5003 74.8788 67.4123 74.4922 67.553ZM37.7517 115.347C37.8322 115.75 36.6334 119.809 35.7441 122.143C33.2597 128.629 29.4588 133.715 24.8041 136.765C22.7579 138.1 19.7576 139.131 17.6081 139.231C13.3373 139.412 11.4134 136.649 13.2141 132.889C13.6957 131.866 15.6008 129.506 17.001 128.211C20.3192 125.099 26.1551 121.256 33.7334 117.191C35.0875 116.463 36.4416 115.736 36.7571 115.559C37.5213 115.152 37.7054 115.115 37.7517 115.347Z" fill="white"/>
<path d="M91.0305 91.1602C90.624 91.5206 90.3855 91.9236 90.0974 92.7171C89.0595 95.6653 85.6947 100.779 83.9424 102.068C82.6911 102.99 82.1543 102.539 82.0514 100.428C82.0052 99.6382 81.9801 99.5925 81.6587 99.5806C80.692 99.5327 80.1968 100.647 80.4992 102.16C80.734 103.255 81.1076 103.688 81.9662 103.833C82.7077 103.952 83.376 103.704 84.4837 102.861C85.9971 101.733 88.6505 98.4877 90.4435 95.5663C91.0833 94.5375 91.1632 94.4581 91.2266 94.7754C91.2656 94.9706 91.3738 96.7888 91.4773 98.8237C91.6609 102.695 92.0348 105.843 92.4188 106.807C92.8579 107.887 93.8295 107.959 94.6067 106.979C94.9267 106.585 95.347 105.575 95.9406 103.756C96.9098 100.783 98.5004 96.8491 99.1611 95.7654C99.8477 94.6512 100.566 94.4949 101.076 95.37C101.202 95.5987 101.514 96.5259 101.774 97.4256C102.34 99.3807 102.804 100.024 103.752 100.139C104.259 100.203 104.41 100.16 105.287 99.7562C106.835 99.0408 109.501 96.8965 111.249 94.9484C111.796 94.3316 111.815 94.1881 111.364 94.0879C111.084 94.0424 110.722 94.3051 109.036 95.7712C106.101 98.3246 105.185 98.9265 104.518 98.7044C104.226 98.5979 104.131 98.3631 103.636 96.3682C102.857 93.1869 102.365 92.6382 100.444 92.7682C98.6825 92.8919 97.6414 94.5465 95.6946 100.29C95.1226 101.978 94.5263 103.544 94.3506 103.782L94.0531 104.209L93.8006 102.547C93.6662 101.635 93.4874 98.9041 93.4003 96.4726C93.2225 91.4327 93.1654 90.9873 92.6498 90.7224C92.1521 90.4666 91.6685 90.6013 91.0305 91.1602Z" fill="white"/>
<path d="M80.8278 94.5444C80.574 94.9504 80.6 95.7192 80.8991 95.9386C81.2588 96.222 81.6325 96.0966 82.1356 95.5012C82.8839 94.6157 82.6668 94.0881 81.5742 94.1288C81.1786 94.1444 81.0503 94.2208 80.8278 94.5444Z" fill="white"/>
<path d="M131.42 42.9856C129.689 44.0459 128.445 45.0018 127.098 46.2422C118.548 54.2148 112.847 68.6076 113.516 80.5903C113.604 82.3863 113.706 82.8688 114.516 85.7561C115.351 88.7322 115.449 89.024 116.208 90.2485C119.677 95.9197 125.666 97.4818 133.277 94.6921C141.068 91.8357 150.759 84.0222 155.302 76.934L156.021 75.8221L156.09 76.4254C156.368 78.5996 158.385 87.5688 158.878 88.852C159.209 89.7336 159.697 90.1715 160.159 90.0419C160.714 89.8863 160.927 89.2835 160.906 87.9638C160.845 84.9622 161.267 82.0808 162.155 79.4998C163.28 76.1654 164.918 74.54 166.259 75.4096C166.545 75.6008 166.801 75.8007 166.813 75.8451C166.949 76.2702 168.34 78.739 168.62 79.0277C169.118 79.5588 169.886 79.8067 170.456 79.6468C171.92 79.2362 174.591 75.5479 176.947 70.7344L177.484 69.6256L177.834 69.9266C178.027 70.0802 178.429 70.686 178.723 71.2585C179.711 73.1215 181.105 73.9443 182.615 73.5207C183.616 73.2398 184.381 72.5301 185.309 71.0399L186.117 69.7114L187.488 69.1509C189.229 68.4231 191.274 67.2424 192.786 66.1155C193.447 65.6267 194.028 65.2083 194.089 65.191C194.151 65.1737 194.237 65.4211 194.278 65.745C194.39 66.56 195.281 68.0189 195.98 68.4939C197.094 69.2673 198.259 69.2122 199.563 68.3512C200.473 67.7445 201.132 66.9528 202.012 65.412C202.87 63.9095 202.925 63.9262 203.516 65.5012C203.952 66.6407 204.717 67.7677 205.492 68.3969C207.124 69.7119 208.713 68.9786 210.305 66.1204C211.143 64.6074 212.245 61.8388 212.53 60.545C212.661 59.8854 212.737 59.8002 213.26 59.6533C213.564 59.552 214.279 59.2557 214.851 58.9835C215.917 58.4607 216.184 58.4021 216.394 58.6784C216.469 58.7691 216.642 59.9185 216.791 61.2184C217.482 67.2375 218.469 70.6979 219.975 72.2721C220.868 73.2036 221.689 73.2287 222.713 72.3185C224.175 71.0139 225.9 66.6169 227.234 60.7646C227.499 59.6361 227.717 58.6964 227.724 58.6625C227.747 58.6242 228.046 58.684 228.404 58.7752C229.777 59.1087 231.045 58.1781 233.247 55.2445C234.048 54.1893 234.732 53.3106 234.794 53.2933C234.84 53.2803 235.281 53.6677 235.767 54.1544C236.82 55.1845 237.868 55.7211 238.665 55.6574C240.28 55.4917 244.1 52.9347 246.178 50.6268L246.66 50.0924L247.72 50.6734C248.863 51.3111 250.285 51.7587 253.022 52.3325C253.979 52.5433 254.827 52.7844 254.887 52.8794C254.962 52.9701 254.576 53.845 254.037 54.8268C252.374 57.7849 251.262 60.812 250.912 63.354C250.789 64.2191 250.831 64.6065 251.147 65.7318C251.496 66.9756 251.564 67.1002 252.106 67.4912C253.068 68.1956 253.591 68.2245 255.44 67.7059C256.838 67.2977 257.206 67.1305 258.281 66.3979C261.193 64.3989 262.986 61.5481 263.076 58.7279C263.114 57.8548 263.023 57.3533 262.673 56.2853C262.291 55.099 262.131 54.8245 261.336 53.9454C260.766 53.3384 259.992 52.7093 259.255 52.2769C258.602 51.9013 258.048 51.5294 258.024 51.4406C258.003 51.3665 258.66 50.2719 259.503 49.0131L261.009 46.738L261.259 47.2747C262.349 49.6202 263.133 50.5184 264.464 50.8796C265.889 51.2785 267.168 50.9198 269.025 49.6003C270.091 48.8381 271.831 46.8647 272.797 45.3319L273.563 44.0947L273.831 44.7542C274.244 45.6925 274.869 45.9645 275.928 45.6514C277.068 45.3316 278.153 44.3405 279.787 42.1092C280.53 41.0861 281.22 40.2857 281.329 40.319C281.434 40.3375 281.793 40.6681 282.125 41.0222C284.112 43.1318 285.386 43.11 288.656 40.9628C291.249 39.2452 293.672 36.7447 293.255 36.2068C293.172 36.0865 292.984 36.0113 292.861 36.0459C292.753 36.0761 291.792 36.8568 290.737 37.7757C286.463 41.4982 285.277 41.831 283.28 39.8676C281.654 38.2792 280.825 38.4639 279.289 40.7476C278.012 42.655 277.215 43.4856 276.396 43.8269L275.693 44.1041L275.575 43.3866C275.302 41.6425 276.772 38.1155 278.104 37.2946C278.659 36.9632 278.74 36.9564 279.271 37.1908C280.158 37.5651 280.548 37.5354 280.775 37.0405C281.102 36.3099 280.296 35.45 279.147 35.325C278.34 35.232 277.089 35.6309 276.429 36.1832C275.69 36.8059 274.259 39.3475 273.942 40.5865C273.793 41.1233 273.597 41.6095 273.498 41.6694C273.398 41.7292 273.013 42.4283 272.641 43.2354C271.511 45.7246 269.025 48.594 267.48 49.1872C265.753 49.8472 264.078 48.6722 262.931 46.0071C262.364 44.6967 261.999 44.2242 261.598 44.3366C261.49 44.3668 261.134 44.7544 260.825 45.1925C260.247 45.9774 259.37 47.1178 257.405 49.6496L256.388 50.9412L254.565 50.7818C251.934 50.5294 249.848 50.1405 249.085 49.7316C247.704 49.0168 247.1 47.8126 247.318 46.2183C247.404 45.6352 247.457 45.5883 248.089 45.4111C248.936 45.1734 249.709 44.2539 250.073 43.0656C250.438 41.8772 250.3 41.1492 249.61 40.7039C248.959 40.2795 248.531 40.3518 247.747 41.051C246.989 41.7267 245.452 44.4257 245.176 45.5734C244.921 46.6192 245.165 48.2597 245.658 48.9518L245.961 49.3781L244.06 51.0135C241.701 53.0327 240.875 53.5839 239.658 53.9253C238.81 54.163 238.644 54.1618 238.1 53.8831C237.752 53.7091 237.179 53.2632 236.803 52.8733C235.266 51.2442 234.43 51.4628 232.73 53.936C231.468 55.7755 230.751 56.5357 230.021 56.8364C229.198 57.1629 229.052 56.9964 229.072 55.8247C229.107 53.9941 230.525 50.9929 231.667 50.3214C232.168 50.0368 232.296 50.0171 232.725 50.1842C233.666 50.5751 233.979 50.567 234.235 50.1758C234.525 49.7272 234.408 49.3126 233.872 48.8241C233.317 48.3251 232.42 48.2093 231.373 48.5032C230.34 48.7928 229.761 49.2748 228.947 50.4614C228.021 51.8393 227.584 53.1276 226.388 58.047C225.752 60.6372 224.94 63.7877 224.581 65.0544C223.587 68.5596 222.498 70.9574 221.851 71.139C221.481 71.2427 221.011 70.5759 220.421 69.0644C219.68 67.1322 219.095 64.2775 218.866 61.3871C218.775 60.2944 218.593 58.876 218.461 58.2264C218.275 57.2084 218.186 57.0097 217.793 56.673C217.202 56.1678 216.695 56.1981 215.461 56.832C214.908 57.1147 214.412 57.3018 214.365 57.2512C214.302 57.2049 214.374 56.0987 214.523 54.795C214.841 51.9586 214.701 50.8642 213.965 50.0801C213.594 49.7051 213.285 49.5521 212.773 49.5041C210.911 49.3237 209.73 51.1564 209.753 54.2006C209.769 56.033 210.213 57.6173 211.026 58.6191L211.664 59.4142L211.365 60.776C210.739 63.6987 208.912 66.7827 207.602 67.1501C206.693 67.4051 205.727 66.0949 204.617 63.0843C203.971 61.3168 203.78 61.0509 203.108 60.9042C202.424 60.7766 202.12 61.1172 201.102 63.1757C200.084 65.2341 199.743 65.7932 199.049 66.5787C197.824 67.9604 196.865 67.3831 196.041 64.8031C195.634 63.5279 195.565 63.4033 195.196 63.3312C194.881 63.2757 194.697 63.3276 194.315 63.6263C192.476 65.0685 189.532 66.6609 187.815 67.1746L186.355 67.6L185.856 66.1749C185.156 64.2149 184.325 63.0268 183.146 62.3194C181.724 61.4565 180.752 61.4894 179.16 62.4473C177.199 63.636 176.118 65.8241 176.449 67.9513C176.56 68.7028 176.509 68.8768 175.407 70.9908C173.596 74.5493 171.494 77.5988 170.739 77.8106C170.292 77.9359 170.074 77.6935 169.188 76.0735C168.774 75.311 168.248 74.5004 168.006 74.2327C167.114 73.3012 165.349 72.9339 164.302 73.4672C162.545 74.3751 160.982 76.6823 160.022 79.7785C159.734 80.7059 159.474 81.4975 159.421 81.5444C159.307 81.6722 159.106 79.8281 159.049 78.087C158.994 76.17 159.295 72.8593 159.805 69.7613C160.971 62.6621 161.416 54.4717 160.899 49.6656C160.666 47.4149 159.894 44.6608 159.224 43.635C158.442 42.4487 157.375 41.9016 155.932 41.971C154.175 42.0485 152.818 44.6173 152.676 48.139C152.501 52.3728 153.029 57.3356 154.857 68.7696C155.906 75.2952 155.907 75.3587 155.634 75.212C155.36 75.0652 155.295 75.1312 153.092 77.586C145.72 85.7872 136.68 92.0125 129.951 93.5008C124.475 94.7174 120.612 93.3257 118.129 89.2147C117.413 88.0259 116.318 84.5958 116.041 82.661C115.767 80.8533 115.716 77.5932 115.9 75.4652C116.241 71.5844 116.979 68.2309 118.408 64.1407C119.49 61.0099 120.33 59.1453 121.941 56.2976C124.298 52.1387 126.47 49.4531 129.978 46.3768C133.23 43.5158 135.146 42.643 137.18 43.0787C138.256 43.3037 138.934 43.7046 139.722 44.6176C140.723 45.7581 141.349 47.0999 141.813 49.11C142.569 52.3958 142.566 55.9422 141.811 59.8275C141.296 62.4318 140.754 64.1169 139.77 66.118C139.006 67.6581 138.981 68.2239 139.669 68.1269C141.828 67.8247 143.938 59.6462 143.63 52.8009C143.265 44.8056 140.276 40.9643 134.992 41.6799C133.409 41.9005 132.836 42.1092 131.42 42.9856ZM157.033 44.1216C158.172 45.3356 159.091 48.4955 159.426 52.235C159.862 57.0479 159.38 64.6899 158.289 70.043L157.858 72.2401L157.44 70.8082C156.917 69.0061 156.369 65.806 155.755 61.011C154.534 51.387 154.388 46.1255 155.267 44.2818C155.46 43.8443 155.624 43.7184 156.017 43.6399C156.426 43.5572 156.602 43.6515 157.033 44.1216ZM212.623 51.1595C213.042 52.0004 213.027 53.6656 212.559 55.9689C212.213 57.6952 211.955 57.3683 211.719 54.927C211.559 53.2309 211.616 52.1925 211.935 51.4324C212.22 50.7296 212.37 50.6715 212.623 51.1595ZM182.325 63.3641C183.333 63.6403 183.707 64.1424 184.292 65.9908C184.645 67.0735 184.778 67.7231 184.707 67.8867C184.488 68.3476 182.99 68.8156 181.64 68.859C179.105 68.9472 178.05 68.2687 178.272 66.6892C178.449 65.4256 179.92 63.7354 181.168 63.3853C181.491 63.2946 182.022 63.2895 182.325 63.3641ZM182.512 70.3711C183.2 70.2741 183.893 70.2554 184.049 70.3393C184.308 70.4904 184.309 70.5539 183.984 70.9964C183.131 72.162 181.896 72.3807 180.974 71.5214C180.662 71.2414 180.397 70.9484 180.385 70.904C180.343 70.7559 181.072 70.5676 182.512 70.3711ZM258.26 54.1213C259.861 55.0298 260.455 55.7256 260.858 57.1618C261.148 58.1347 261.15 58.4377 260.966 59.3835C260.357 62.3655 257.697 65.4435 254.843 66.4677C253.924 66.8054 253.727 66.8128 253.298 66.6457C251.448 65.9187 252.388 61.5663 255.772 55.2028C256.25 54.3019 256.731 53.5281 256.839 53.4978C256.947 53.4676 257.591 53.75 258.26 54.1213Z" fill="white"/>
</svg>
