<svg width="52" height="52" viewBox="0 0 52 52" fill="none" xmlns="http://www.w3.org/2000/svg">
<path d="M49.9688 11.1211C48.2017 11.9031 46.3126 12.4313 44.322 12.675C46.3532 11.4563 47.9173 9.52656 48.6485 7.23125C46.7493 8.35859 44.647 9.18125 42.4024 9.61797C40.6048 7.69844 38.0454 6.5 35.222 6.5C29.7884 6.5 25.3907 10.9078 25.3907 16.3414C25.3907 17.1133 25.472 17.8648 25.6446 18.5859C17.4688 18.1797 10.2173 14.2594 5.37275 8.29766C4.52979 9.75 4.04228 11.4461 4.04228 13.2437C4.04228 16.6562 5.779 19.6727 8.41963 21.4398C6.80479 21.3992 5.28135 20.9523 3.96104 20.2109C3.96104 20.2516 3.96104 20.2922 3.96104 20.3328C3.96104 25.1062 7.35322 29.0773 11.8524 29.9813C11.0298 30.2047 10.1563 30.3266 9.2626 30.3266C8.63291 30.3266 8.01338 30.2656 7.41416 30.1437C8.66338 34.0539 12.2993 36.8977 16.6056 36.9789C13.2438 39.6195 8.99854 41.1938 4.3876 41.1938C3.59541 41.1938 2.81338 41.143 2.0415 41.0516C6.38838 43.875 11.5579 45.5 17.1032 45.5C35.2017 45.5 45.0938 30.4992 45.0938 17.4891C45.0938 17.0625 45.0837 16.6359 45.0634 16.2195C46.9829 14.8281 48.6485 13.0914 49.9688 11.1211Z" fill="white"/>
</svg>
