<svg width="30" height="30" viewBox="0 0 30 30" fill="none" xmlns="http://www.w3.org/2000/svg">
<path d="M15 7.03125C13.0611 7.03125 11.4844 8.60795 11.4844 10.5469C11.4844 12.4951 13.0583 14.0625 15 14.0625C16.9765 14.0625 18.5156 12.4655 18.5156 10.5469C18.5156 8.60795 16.9389 7.03125 15 7.03125Z" fill="#FFFBFB"/>
<path d="M15 0C9.1841 0 4.45312 4.73098 4.45312 10.5469C4.45312 12.5115 4.99729 14.429 6.02643 16.0924L14.3992 29.5842C14.7464 30.1448 15.565 30.1363 15.9013 29.5721L24.0604 15.9499C25.0319 14.3217 25.5469 12.4532 25.5469 10.5469C25.5469 4.73098 20.8159 0 15 0ZM15 15.832C12.0501 15.832 9.71484 13.4309 9.71484 10.5469C9.71484 7.63893 12.0921 5.26172 15 5.26172C17.9079 5.26172 20.2852 7.63893 20.2852 10.5469C20.2852 13.4055 17.9813 15.832 15 15.832Z" fill="#FFFBFB"/>
</svg>
