<svg width="81" height="81" viewBox="0 0 81 81" fill="none" xmlns="http://www.w3.org/2000/svg">
<path d="M27.4071 2.33999C13.1519 7.26879 3.4237 18.9626 0.534127 34.6188C-1.68121 46.216 3.13473 60.2293 12.3814 69.3137C18.0642 74.8226 23.0728 77.6253 30.8746 79.7512C53.1242 85.6464 76.915 69.9904 80.479 47.0858C80.9604 43.9933 81.1533 41.2874 80.8642 40.9972C80.5752 40.7074 77.8783 40.5142 74.796 40.5142C69.4021 40.5142 69.1134 40.6107 68.6317 43.1235C66.5127 53.3676 62.8526 59.3595 55.9175 63.7084C43.6849 71.5367 26.7329 68.6373 18.7384 57.2335C14.5967 51.4347 13.4409 47.859 13.3446 40.9008C13.2482 34.0391 14.4041 29.98 18.2568 24.3747C21.7243 19.2526 25.6734 16.4499 32.801 13.9372L38.5801 12.0043L38.8692 5.91579C39.1579 -0.0760896 39.1579 -0.0760893 36.5576 0.020554C35.1125 0.020554 30.971 1.08363 27.4071 2.33999Z" fill="#D7D8DB"/>
<path d="M47.3678 19.875C47.2714 30.7868 46.9828 40.7243 46.5977 42.0884C45.0572 47.8363 36.7769 48.3235 34.1776 42.7702C33.0221 40.3346 32.5407 40.1399 26.6677 40.1399C19.928 40.1399 19.7355 40.3346 21.6611 46.0828C24.3569 54.1693 31.6741 59.625 39.9544 59.625C45.8273 59.625 50.3525 57.579 54.2037 53.1949C59.5954 46.9597 59.9805 45.0109 59.9805 23.7721V4.48163L56.8033 2.92278C55.1666 2.14338 52.2781 1.07169 50.545 0.779411L47.4643 0L47.3678 19.875Z" fill="#D7D8DB"/>
</svg>
